<svg xmlns="http://www.w3.org/2000/svg" viewBox="139.89 169.15 222.43 294.21" role="img" aria-label="VERA Holdings logo">
  <path d="M192.04 411.47L180.65 443.18C180.46 443.72 179.7 443.73 179.5 443.2L167.42 411.46C167.33 411.23 167.1 411.07 166.85 411.07L159.22 411.07C158.78 411.07 158.49 411.51 158.65 411.91L175.82 454.92C175.91 455.15 176.14 455.3 176.39 455.3L183 455.3C183.25 455.3 183.48 455.15 183.57 454.92L200.87 411.91C201.03 411.51 200.74 411.07 200.3 411.07L192.62 411.07C192.36 411.07 192.13 411.23 192.04 411.47Z" fill="#ffffff"/>
  <path d="M213.09 454.69L213.09 411.68C213.09 411.34 213.37 411.07 213.7 411.07L241.37 411.07C241.71 411.07 241.98 411.34 241.98 411.68L241.98 417.91C241.98 418.25 241.71 418.53 241.37 418.53L221.78 418.53C221.44 418.53 221.17 418.8 221.17 419.14L221.17 447.23C221.17 447.57 221.44 447.85 221.78 447.85L241.62 447.85C241.96 447.85 242.23 448.12 242.23 448.46L242.23 454.69C242.23 455.03 241.96 455.3 241.62 455.3L213.7 455.3C213.37 455.3 213.09 455.03 213.09 454.69Z" fill="#ffffff"/>
  <path d="M224.23 436.35L224.23 429.02L238.15 429.02C238.49 429.02 238.77 429.29 238.77 429.63L238.77 435.73C238.77 436.07 238.49 436.35 238.15 436.35ZZ" fill="#ffffff"/>
  <path d="M281.38 428.7C280.87 429.71 280.17 430.5 279.26 431.07C278.36 431.64 277.3 431.92 276.08 431.92L265.46 431.92C265.12 431.92 264.85 431.65 264.85 431.31L264.85 419.07C264.85 418.74 265.12 418.46 265.46 418.46L274.63 418.46C276.1 418.46 277.4 418.76 278.54 419.35C279.67 419.94 280.56 420.74 281.19 421.75C281.82 422.76 282.13 423.96 282.13 425.35C282.13 426.57 281.88 427.69 281.38 428.7M288.47 417.99C287.19 415.86 285.45 414.18 283.27 412.93C281.08 411.69 278.66 411.07 276.01 411.07L257.45 411.07C257.11 411.07 256.84 411.34 256.84 411.68L256.84 454.69C256.84 455.03 257.11 455.3 257.45 455.3L264.24 455.3C264.57 455.3 264.85 455.03 264.85 454.69L264.85 439.68C264.85 439.34 265.12 439.06 265.46 439.06L273.32 439.06L276.01 439.06C278.19 439.06 280.19 438.63 282.02 437.82C282.46 437.63 282.89 437.44 283.3 437.2C285.47 435.96 287.19 434.27 288.47 432.14C289.75 430.02 290.4 427.69 290.4 425.16C290.4 422.51 289.75 420.12 288.47 417.99Z" fill="#ffffff"/>
  <path d="M283.26 440.62C281.01 441.62 278.57 442.12 276.01 442.12L275.04 442.12L282.27 454.99C282.38 455.18 282.58 455.3 282.8 455.31L291.09 455.36C291.57 455.36 291.86 454.85 291.63 454.44L283.56 440.48C283.46 440.53 283.35 440.58 283.26 440.62Z" fill="#ffffff"/>
  <path d="M313.75 445.19L316.38 438.05L322.51 438.05L325.11 445.19ZZ" fill="#ffffff"/>
  <path d="M340.25 454.47L323.63 411.46C323.54 411.22 323.31 411.07 323.06 411.07L316.2 411.07C315.95 411.07 315.72 411.22 315.63 411.46L298.89 454.47C298.73 454.87 299.03 455.3 299.46 455.3L306.33 455.3C306.59 455.3 306.82 455.14 306.91 454.9L318.89 422.23C319.08 421.69 319.84 421.69 320.04 422.23L331.91 454.9C332 455.14 332.23 455.3 332.49 455.3L339.68 455.3C340.11 455.3 340.41 454.87 340.25 454.47Z" fill="#ffffff"/>
  <path d="M274.25 328.96L227.88 328.96C226.92 328.96 226.43 327.8 227.11 327.11L249.9 304.28C250.6 303.57 251.75 303.57 252.45 304.28L275.02 327.12C275.7 327.8 275.21 328.96 274.25 328.96M287.06 323.08L252.49 288.06C251.79 287.35 250.64 287.35 249.94 288.05L215.62 322.45C215.57 322.5 215.52 322.55 215.48 322.61L208.55 331.39L208.17 331.94C199.99 345.41 198.56 362.22 204.33 376.93L205.3 379.41C205.57 380.09 206.23 380.55 206.97 380.55L224.59 380.59C225.19 380.59 225.67 380.11 225.67 379.51L225.7 370.24C225.7 369.65 225.21 369.16 224.62 369.16L215.14 369.14C214.32 369.14 213.59 368.58 213.39 367.79C211.23 358.98 212.17 349.59 216.05 341.41C216.35 340.78 216.99 340.39 217.68 340.39L284.56 340.39C285.26 340.39 285.9 340.78 286.2 341.41C290.08 349.61 291.01 359.01 288.84 367.84C288.64 368.64 287.91 369.19 287.08 369.19L277.62 369.17C277.03 369.16 276.54 369.65 276.54 370.24L276.52 379.51C276.52 380.11 277 380.6 277.6 380.6L295.23 380.63C295.97 380.64 296.64 380.18 296.91 379.49L297.89 377.01C303.66 362.37 302.28 345.61 294.21 332.16C294.16 332.09 294.11 332.02 294.06 331.95L287.19 323.23C287.15 323.18 287.1 323.13 287.06 323.08Z" fill="#ffffff"/>
  <path d="M249.79 253.51L225.72 229.15C225.52 228.95 225.24 228.83 224.95 228.83L212.77 228.83C211.87 228.83 211.36 229.87 211.92 230.58C214.05 233.28 216.33 235.86 218.75 238.31L249.76 269.73C250.46 270.44 251.61 270.44 252.31 269.73L282.49 239.49C285.29 236.68 287.93 233.7 290.4 230.58C290.96 229.87 290.45 228.83 289.55 228.83L277.42 228.83C277.13 228.83 276.86 228.95 276.66 229.15L252.35 253.51C251.64 254.22 250.5 254.22 249.79 253.51Z" fill="#ffffff"/>
  <path d="M215.8 215.86C212.13 207.78 211.28 198.58 213.41 189.95C213.6 189.15 214.34 188.6 215.16 188.6L276.55 188.63L287.11 188.65C287.93 188.65 288.66 189.2 288.85 190C290.97 198.62 290.11 207.79 286.44 215.86C286.11 216.58 286.61 217.4 287.41 217.4L297.4 217.4C297.86 217.4 298.27 217.11 298.42 216.68C302.52 205.2 302.44 192.38 297.92 180.86L296.95 178.38C296.68 177.7 296.01 177.24 295.28 177.24L276.58 177.2L225.73 177.2L207.02 177.15C206.28 177.15 205.61 177.61 205.34 178.29L204.36 180.78C199.81 192.32 199.71 205.17 203.82 216.69C203.98 217.12 204.38 217.4 204.84 217.4L214.84 217.4C215.63 217.4 216.13 216.58 215.8 215.86Z" fill="#ffffff"/>
  <path d="M240.47 277.71L210.23 247.53C207.41 244.72 204.44 242.08 201.32 239.62L201.32 239.62C200.61 239.06 199.57 239.57 199.57 240.47L199.57 252.6C199.57 252.88 199.68 253.16 199.89 253.36L224.25 277.67C224.96 278.37 224.95 279.52 224.24 280.22L199.89 304.3C199.68 304.5 199.57 304.77 199.57 305.06L199.57 317.25C199.57 318.15 200.61 318.66 201.32 318.1C204.02 315.97 206.6 313.69 209.05 311.27L240.46 280.26C241.18 279.56 241.18 278.41 240.47 277.71Z" fill="#ffffff"/>
  <path d="M159.36 253.47L159.39 242.91C159.39 242.09 159.94 241.36 160.74 241.16C169.36 239.05 178.53 239.91 186.59 243.58C187.31 243.91 188.14 243.4 188.14 242.6L188.14 232.62C188.14 232.16 187.85 231.75 187.42 231.59C175.93 227.49 163.12 227.58 151.6 232.1L149.12 233.07C148.43 233.34 147.98 234 147.98 234.74L147.93 253.44L147.93 304.29L147.89 323C147.89 323.74 148.34 324.41 149.03 324.68L151.52 325.66C163.06 330.21 175.91 330.31 187.42 326.2C187.85 326.04 188.14 325.63 188.14 325.17L188.14 315.18C188.14 314.39 187.31 313.88 186.59 314.21C178.51 317.89 169.32 318.74 160.68 316.61C159.89 316.41 159.34 315.68 159.34 314.86L159.35 285.53C159.35 284.54 160.15 283.73 161.15 283.73L187.51 283.73C188.11 283.73 188.59 283.25 188.59 282.65L188.59 273.38C188.59 272.78 188.11 272.3 187.51 272.3L161.15 272.3C160.16 272.3 159.35 271.49 159.35 270.5ZZ" fill="#ffffff"/>
  <path d="M303.43 252.14C313.28 242.22 328.08 238.4 341.56 241.92C342.35 242.12 342.89 242.85 342.89 243.66L342.89 313.56C342.89 314.7 341.83 315.58 340.72 315.33C337.13 314.54 333.89 311.51 328.45 306.03C327.41 304.98 326.34 303.91 325.22 302.81L290.42 267.77C289.73 267.07 289.73 265.94 290.43 265.24ZM316.78 310.53C316.92 310.68 317.07 310.83 317.22 310.98C318.31 312.04 319.34 313.08 320.34 314.08C326.9 320.68 333.17 327 342.48 327C344.9 327 347.51 326.57 350.39 325.62L353.08 324.73C353.82 324.49 354.32 323.8 354.32 323.02L354.32 235.62C354.32 234.89 353.87 234.23 353.2 233.95L350.76 232.96C331.87 225.24 309.59 229.72 295.32 244.09L261.53 278.1C261.11 278.52 261.11 279.21 261.53 279.63L268.11 286.16C268.53 286.58 269.22 286.58 269.64 286.16L278.85 276.88C279.53 276.2 280.7 276.68 280.7 277.65L280.7 299.36C280.7 299.83 280.88 300.28 281.21 300.62L343.76 364.42C344.18 364.84 344.87 364.85 345.29 364.43L351.91 357.94C352.34 357.52 352.34 356.84 351.92 356.41L292.64 295.95C292.31 295.61 292.13 295.16 292.13 294.69L292.13 288.33C292.13 287.37 293.29 286.89 293.97 287.57ZZ" fill="#ffffff"/>
</svg>
